<?xml version="1.0" standalone="no"?>
<!DOCTYPE svg PUBLIC "-//W3C//DTD SVG 20010904//EN"
 "http://www.w3.org/TR/2001/REC-SVG-20010904/DTD/svg10.dtd">
<svg version="1.0" xmlns="http://www.w3.org/2000/svg"
 width="600.000000pt" height="250.000000pt" viewBox="0 0 600.000000 250.000000"
 preserveAspectRatio="xMidYMid meet">
<metadata>
Created by potrace 1.16, written by Peter Selinger 2001-2019
</metadata>
<g transform="translate(0.000000,250.000000) scale(0.100000,-0.100000)"
fill="#000000" stroke="none">
<path d="M1070 2227 c-120 -28 -209 -96 -263 -202 -42 -83 -49 -202 -17 -288
33 -88 87 -150 167 -189 65 -32 72 -33 188 -33 103 0 127 3 168 22 51 24 147
115 147 139 0 9 -22 -7 -50 -36 -68 -70 -125 -94 -220 -94 -127 0 -212 50
-263 153 -30 61 -32 73 -32 166 0 155 48 256 148 311 45 25 63 29 132 28 62 0
89 -5 120 -21 50 -27 97 -75 124 -130 12 -24 24 -43 27 -43 6 0 -2 122 -13
194 l-5 40 -20 -27 c-23 -32 -41 -33 -99 -8 -58 26 -169 34 -239 18z"/>
<path d="M1903 2228 c-10 -14 -153 -315 -153 -323 0 -3 10 -5 23 -5 18 1 29
16 61 85 22 47 42 85 46 85 4 0 25 -39 48 -87 l40 -88 55 3 54 4 -75 161 c-41
89 -78 166 -82 170 -4 4 -11 2 -17 -5z"/>
<path d="M3947 2228 c2 -5 17 -8 32 -8 16 0 40 -9 55 -21 26 -20 26 -21 26
-160 l0 -139 60 0 60 0 0 135 c0 131 1 137 25 160 16 17 35 25 60 25 19 0 35
3 35 8 0 4 -81 7 -179 7 -99 0 -177 -3 -174 -7z"/>
<path d="M2670 2221 c-130 -40 -237 -157 -265 -288 l-7 -33 65 0 64 0 6 54
c10 100 79 197 166 234 46 19 154 20 205 3 54 -19 124 -86 153 -146 l24 -50
-6 115 c-4 63 -9 117 -11 120 -3 2 -13 -6 -23 -19 -20 -26 -43 -26 -116 3 -43
16 -209 21 -255 7z"/>
<path d="M3190 2220 c0 -5 17 -10 38 -10 66 0 72 -16 72 -173 l0 -137 170 0
170 0 0 49 c0 28 -4 53 -10 56 -5 3 -10 -3 -10 -15 0 -12 -13 -35 -29 -51 -27
-27 -35 -29 -106 -29 l-76 0 3 143 3 142 140 3 c168 3 198 -7 231 -77 12 -24
23 -40 25 -35 3 5 3 39 1 77 l-4 67 -309 0 c-199 0 -309 -4 -309 -10z"/>
<path d="M1500 1711 l0 -180 31 11 c17 6 40 26 53 47 20 33 146 288 146 297 0
2 -52 4 -115 4 l-115 0 0 -179z"/>
<path d="M1773 1846 c-12 -24 -19 -47 -16 -50 4 -3 60 -6 125 -6 131 0 132 0
101 65 l-17 35 -86 0 -86 0 -21 -44z"/>
<path d="M2090 1882 c0 -4 4 -12 9 -17 4 -6 32 -62 60 -125 72 -158 92 -186
141 -201 78 -23 40 -34 -120 -34 -114 0 -154 3 -157 13 -3 7 4 12 15 12 11 0
30 8 43 19 21 17 22 21 11 57 -7 22 -24 62 -40 89 l-27 50 -148 3 -148 3 -40
-86 c-47 -99 -43 -119 21 -130 22 -4 40 -10 40 -15 0 -16 -36 -21 -140 -19
l-105 2 -3 -181 -2 -181 101 -3 101 -3 2 -85 1 -85 1763 -3 1762 -2 0 372 0
373 -91 -4 c-60 -2 -95 1 -102 8 -7 7 -12 45 -12 94 l0 82 -416 3 -417 2 -6
-22 c-10 -37 -7 -240 4 -280 11 -38 44 -58 97 -58 15 0 23 -5 21 -12 -4 -10
-50 -13 -188 -13 -138 0 -184 3 -187 13 -3 8 6 12 27 12 33 0 70 15 82 34 4 6
8 82 8 169 l0 157 -205 0 -205 0 0 -65 c0 -38 -4 -65 -10 -65 -11 0 -14 7 -25
53 -7 36 -55 57 -130 57 l-55 0 0 -144 c0 -115 3 -146 15 -156 11 -9 53 -11
153 -8 158 4 178 12 241 94 19 25 39 43 45 41 7 -2 11 -37 11 -93 l0 -89 -349
0 c-271 0 -350 3 -353 13 -3 8 7 12 30 12 19 0 45 8 58 19 23 19 24 23 24 173
l0 153 -382 3 -383 2 0 -47 c0 -170 108 -287 275 -300 84 -7 158 23 235 93 32
30 61 50 64 45 4 -5 -13 -34 -37 -63 -30 -37 -63 -63 -112 -88 -66 -34 -72
-35 -179 -35 -101 0 -117 3 -173 29 -72 33 -147 107 -182 178 -13 27 -24 75
-28 117 l-6 71 -148 0 c-82 0 -149 -4 -149 -8z"/>
<path d="M1870 772 c0 -26 -2 -27 -39 -24 -31 3 -42 0 -55 -19 -20 -29 -20
-58 0 -87 13 -18 24 -22 70 -21 l54 2 0 88 c0 72 -3 89 -15 89 -10 0 -15 -10
-15 -28z"/>
<path d="M2770 772 c0 -26 -2 -27 -39 -24 -31 3 -42 0 -55 -19 -20 -29 -20
-58 0 -87 13 -18 24 -22 70 -21 l54 2 0 88 c0 72 -3 89 -15 89 -10 0 -15 -10
-15 -28z"/>
<path d="M3800 772 c0 -26 -2 -27 -39 -24 -31 3 -42 0 -55 -19 -20 -29 -20
-58 0 -87 13 -18 24 -22 70 -21 l54 2 0 88 c0 72 -3 89 -15 89 -10 0 -15 -10
-15 -28z"/>
<path d="M1566 728 c-36 -51 -7 -108 54 -108 29 0 43 6 54 22 36 51 7 108 -54
108 -29 0 -43 -6 -54 -22z"/>
<path d="M1940 482 c0 -26 -2 -27 -39 -24 -31 3 -42 0 -55 -19 -20 -29 -20
-58 0 -87 13 -18 24 -22 70 -21 l54 2 0 88 c0 72 -3 89 -15 89 -10 0 -15 -10
-15 -28z"/>
<path d="M2706 438 c-20 -29 -20 -58 0 -87 14 -20 23 -23 60 -18 39 4 42 3 34
-13 -13 -25 -36 -31 -65 -18 -28 12 -48 2 -25 -12 24 -15 87 -11 104 6 12 11
16 35 16 88 l0 72 -54 2 c-47 2 -57 -1 -70 -20z"/>
</g>
</svg>
