<svg height="512" viewBox="0 0 64 64" width="512" xmlns="http://www.w3.org/2000/svg"><g id="coding-cloud-web_design-programing-server" data-name="coding-cloud-web design-programing-server"><path d="m7 22h50v23h-50z" fill="#ffc477"/><path d="m27 51h10v6h-10z" fill="#808285"/><path d="m21 57a2 2 0 0 0 -2 2v2h26v-2a2 2 0 0 0 -2-2z" fill="#58595b"/><path d="m27 51h10v2h-10z" fill="#6d6e71"/><path d="m61 25a10.991 10.991 0 0 1 -11 11h-36a11 11 0 1 1 4.17-21.18 14 14 0 0 1 27.66 0 10.879 10.879 0 0 1 4.17-.82 10.994 10.994 0 0 1 11 11z" fill="#006df0"/><path d="m44.721 14.242q.473-.1.96-.155a13.992 13.992 0 0 0 -13.681-11.087 14.282 14.282 0 0 0 -1.5.087 14.009 14.009 0 0 1 11.9 9.841 1.98 1.98 0 0 0 2.321 1.314z" fill="#005ece"/><path d="m50 14a11.08 11.08 0 0 0 -1.5.114 10.994 10.994 0 0 1 -1.5 21.886h3a11 11 0 0 0 0-22z" fill="#005ece"/><path d="m20 25h24v20h-24z" fill="#ffeb99"/><path d="m24 45h20v-20a20 20 0 0 1 -20 20z" fill="#ffe477"/><path d="m44 45h-37v4a2.006 2.006 0 0 0 2 2h46a2.006 2.006 0 0 0 2-2v-4z" fill="#004fac"/><path d="m42 19h-20a2 2 0 0 0 -2 2v4h24v-4a2 2 0 0 0 -2-2z" fill="#004fac"/><g fill="#f1f2f2"><path d="m24 21h-1a1 1 0 0 0 0 2h1a1 1 0 0 0 0-2z"/><path d="m28 21h-1a1 1 0 0 0 0 2h1a1 1 0 0 0 0-2z"/><path d="m32 21h-1a1 1 0 0 0 0 2h1a1 1 0 0 0 0-2z"/></g><path d="m39.555 34.168-3-2a1 1 0 0 0 -1.11 1.664l1.755 1.168-1.752 1.168a1 1 0 0 0 1.11 1.664l3-2a1 1 0 0 0 0-1.664z" fill="#ed1c24"/><path d="m28.832 32.445a1 1 0 0 0 -1.387-.277l-3 2a1 1 0 0 0 0 1.664l3 2a1 1 0 1 0 1.11-1.664l-1.755-1.168 1.752-1.168a1 1 0 0 0 .28-1.387z" fill="#ed1c24"/><path d="m33.242 30.03a1 1 0 0 0 -1.212.727l-2 8a1 1 0 0 0 .727 1.213.976.976 0 0 0 .243.03 1 1 0 0 0 .969-.757l2-8a1 1 0 0 0 -.727-1.213z" fill="#ed1c24"/><path d="m33 47h-2a1 1 0 0 0 0 2h2a1 1 0 0 0 0-2z" fill="#f1f2f2"/><path d="m17.71 40.71a1 1 0 0 0 -1.42-1.42l-1.29 1.3v-4.59h-2v4.59l-1.29-1.3a1 1 0 0 0 -1.42 1.42l3 3a1.014 1.014 0 0 0 1.42 0z" fill="#5eac24"/><path d="m48 36h2v-4.59l1.29 1.3a1.014 1.014 0 0 0 1.42 0 1.008 1.008 0 0 0 0-1.42l-3-3a1.008 1.008 0 0 0 -1.42 0l-3 3a1 1 0 0 0 1.42 1.42l1.29-1.3z" fill="#ed1c24"/></g></svg>